<svg width="24" height="23" viewBox="0 0 24 23" fill="none" xmlns="http://www.w3.org/2000/svg">
<path d="M1 11.2315C1 7.1702 1 5.13957 2.26167 3.87788C3.52336 2.61621 5.55399 2.61621 9.61527 2.61621H13.9229C17.9841 2.61621 20.0149 2.61621 21.2765 3.87788C22.5382 5.13957 22.5382 7.1702 22.5382 11.2315V13.3853C22.5382 17.4465 22.5382 19.4773 21.2765 20.7389C20.0149 22.0006 17.9841 22.0006 13.9229 22.0006H9.61527C5.55399 22.0006 3.52336 22.0006 2.26167 20.7389C1 19.4773 1 17.4465 1 13.3853V11.2315Z" stroke="#1C274C" stroke-width="2"/>
<path d="M6.38455 2.61536V1" stroke="#1C274C" stroke-width="2" stroke-linecap="round"/>
<path d="M17.1536 2.61536V1" stroke="#1C274C" stroke-width="2" stroke-linecap="round"/>
<path d="M1.54022 7.99854H22.0015" stroke="#1C274C" stroke-width="2" stroke-linecap="round"/>
<path d="M18.2314 16.6145C18.2314 17.2093 17.7493 17.6914 17.1545 17.6914C16.5597 17.6914 16.0776 17.2093 16.0776 16.6145C16.0776 16.0197 16.5597 15.5376 17.1545 15.5376C17.7493 15.5376 18.2314 16.0197 18.2314 16.6145Z" fill="#1C274C"/>
<path d="M18.2314 12.3079C18.2314 12.9026 17.7493 13.3848 17.1545 13.3848C16.5597 13.3848 16.0776 12.9026 16.0776 12.3079C16.0776 11.7131 16.5597 11.231 17.1545 11.231C17.7493 11.231 18.2314 11.7131 18.2314 12.3079Z" fill="#1C274C"/>
<path d="M12.8469 16.6145C12.8469 17.2093 12.3647 17.6914 11.77 17.6914C11.1752 17.6914 10.6931 17.2093 10.6931 16.6145C10.6931 16.0197 11.1752 15.5376 11.77 15.5376C12.3647 15.5376 12.8469 16.0197 12.8469 16.6145Z" fill="#1C274C"/>
<path d="M12.8469 12.3079C12.8469 12.9026 12.3647 13.3848 11.77 13.3848C11.1752 13.3848 10.6931 12.9026 10.6931 12.3079C10.6931 11.7131 11.1752 11.231 11.77 11.231C12.3647 11.231 12.8469 11.7131 12.8469 12.3079Z" fill="#1C274C"/>
<path d="M7.46235 16.6145C7.46235 17.2093 6.9802 17.6914 6.38544 17.6914C5.79069 17.6914 5.30853 17.2093 5.30853 16.6145C5.30853 16.0197 5.79069 15.5376 6.38544 15.5376C6.9802 15.5376 7.46235 16.0197 7.46235 16.6145Z" fill="#1C274C"/>
<path d="M7.46235 12.3079C7.46235 12.9026 6.9802 13.3848 6.38544 13.3848C5.79069 13.3848 5.30853 12.9026 5.30853 12.3079C5.30853 11.7131 5.79069 11.231 6.38544 11.231C6.9802 11.231 7.46235 11.7131 7.46235 12.3079Z" fill="#1C274C"/>
</svg>
