<svg width="45" height="45" viewBox="0 0 45 45" fill="none" xmlns="http://www.w3.org/2000/svg">
<circle cx="22.5" cy="22.5" r="22.25" stroke="#00347D" stroke-width="0.5"/>
<path fill-rule="evenodd" clip-rule="evenodd" d="M14.1428 21.5716C14.1428 18.0698 14.1428 16.3188 15.2307 15.231C16.3186 14.1431 18.0695 14.1431 21.5714 14.1431H23.4285C26.9304 14.1431 28.6814 14.1431 29.7692 15.231C30.8571 16.3188 30.8571 18.0698 30.8571 21.5716V23.4288C30.8571 26.9306 30.8571 28.6816 29.7692 29.7694C28.6814 30.8574 26.9304 30.8574 23.4285 30.8574H21.5714C18.0695 30.8574 16.3186 30.8574 15.2307 29.7694C14.1428 28.6816 14.1428 26.9306 14.1428 23.4288V21.5716ZM28.0714 18.3216C28.0714 19.0909 27.4478 19.7145 26.6785 19.7145C25.9093 19.7145 25.2857 19.0909 25.2857 18.3216C25.2857 17.5524 25.9093 16.9288 26.6785 16.9288C27.4478 16.9288 28.0714 17.5524 28.0714 18.3216ZM24.3571 23.4288C24.3571 24.4545 23.5257 25.2859 22.5 25.2859C21.4743 25.2859 20.6428 24.4545 20.6428 23.4288C20.6428 22.4031 21.4743 21.5716 22.5 21.5716C23.5257 21.5716 24.3571 22.4031 24.3571 23.4288ZM26.2143 23.4288C26.2143 25.4801 24.5513 27.1431 22.5 27.1431C20.4486 27.1431 18.7857 25.4801 18.7857 23.4288C18.7857 21.3775 20.4486 19.7145 22.5 19.7145C24.5513 19.7145 26.2143 21.3775 26.2143 23.4288Z" fill="url(#paint0_linear_19_301)"/>
<defs>
<linearGradient id="paint0_linear_19_301" x1="22.5" y1="14.1431" x2="22.5" y2="30.8574" gradientUnits="userSpaceOnUse">
<stop stop-color="#405DE6"/>
<stop offset="0.1" stop-color="#5B51D8"/>
<stop offset="0.195" stop-color="#833AB4"/>
<stop offset="0.29" stop-color="#E1306C"/>
<stop offset="0.39" stop-color="#C13584"/>
<stop offset="0.51" stop-color="#FD1D1D"/>
<stop offset="0.62" stop-color="#F56040"/>
<stop offset="0.73" stop-color="#F57E17"/>
<stop offset="0.865" stop-color="#FCAF45"/>
<stop offset="1" stop-color="#FFDC80"/>
</linearGradient>
</defs>
</svg>
