<svg width="17" height="17" viewBox="0 0 17 17" fill="none" xmlns="http://www.w3.org/2000/svg">
<path fill-rule="evenodd" clip-rule="evenodd" d="M0.142822 7.57164C0.142822 4.06977 0.142822 2.31885 1.23071 1.23095C2.3186 0.143066 4.06953 0.143066 7.57139 0.143066H9.42854C12.9304 0.143066 14.6814 0.143066 15.7692 1.23095C16.8571 2.31885 16.8571 4.06977 16.8571 7.57164V9.42878C16.8571 12.9306 16.8571 14.6816 15.7692 15.7694C14.6814 16.8574 12.9304 16.8574 9.42854 16.8574H7.57139C4.06953 16.8574 2.3186 16.8574 1.23071 15.7694C0.142822 14.6816 0.142822 12.9306 0.142822 9.42878V7.57164ZM14.0714 4.32164C14.0714 5.09089 13.4478 5.71449 12.6785 5.71449C11.9093 5.71449 11.2857 5.09089 11.2857 4.32164C11.2857 3.55238 11.9093 2.92878 12.6785 2.92878C13.4478 2.92878 14.0714 3.55238 14.0714 4.32164ZM10.3571 9.42878C10.3571 10.4545 9.52567 11.2859 8.49996 11.2859C7.47427 11.2859 6.64282 10.4545 6.64282 9.42878C6.64282 8.40308 7.47427 7.57164 8.49996 7.57164C9.52567 7.57164 10.3571 8.40308 10.3571 9.42878ZM12.2143 9.42878C12.2143 11.4801 10.5513 13.1431 8.49996 13.1431C6.44862 13.1431 4.78568 11.4801 4.78568 9.42878C4.78568 7.37747 6.44862 5.71449 8.49996 5.71449C10.5513 5.71449 12.2143 7.37747 12.2143 9.42878Z" fill="url(#paint0_linear_19_303)"/>
<defs>
<linearGradient id="paint0_linear_19_303" x1="8.49996" y1="0.143066" x2="8.49996" y2="16.8574" gradientUnits="userSpaceOnUse">
<stop stop-color="#405DE6"/>
<stop offset="0.1" stop-color="#5B51D8"/>
<stop offset="0.195" stop-color="#833AB4"/>
<stop offset="0.29" stop-color="#E1306C"/>
<stop offset="0.39" stop-color="#C13584"/>
<stop offset="0.51" stop-color="#FD1D1D"/>
<stop offset="0.62" stop-color="#F56040"/>
<stop offset="0.73" stop-color="#F57E17"/>
<stop offset="0.865" stop-color="#FCAF45"/>
<stop offset="1" stop-color="#FFDC80"/>
</linearGradient>
</defs>
</svg>
