<svg width="45" height="45" viewBox="0 0 45 45" fill="none" xmlns="http://www.w3.org/2000/svg">
<path d="M33.1789 17.2602C32.4659 17.5757 31.7099 17.7829 30.9357 17.8752C31.751 17.3875 32.3613 16.62 32.6528 15.7158C31.886 16.1706 31.0469 16.4907 30.172 16.6622C29.636 16.0911 28.9408 15.6943 28.1766 15.5231C27.4123 15.352 26.6143 15.4145 25.886 15.7024C25.1577 15.9904 24.5327 16.4906 24.0921 17.1381C23.6516 17.7856 23.4158 18.5505 23.4153 19.3337C23.4147 19.6334 23.4481 19.9321 23.5151 20.2242C21.9628 20.1462 20.4443 19.7426 19.058 19.0397C17.6718 18.3367 16.4489 17.3502 15.4686 16.1441C14.9691 17.0037 14.816 18.0213 15.0405 18.9899C15.2649 19.9584 15.8499 20.805 16.6766 21.3573C16.0566 21.3382 15.4502 21.1704 14.9085 20.8681V20.9201C14.9089 21.8207 15.2204 22.6935 15.7904 23.3908C16.3603 24.0882 17.1537 24.5671 18.0363 24.7466C17.7008 24.8379 17.3547 24.8839 17.007 24.8834C16.7621 24.8834 16.5177 24.86 16.2772 24.8135C16.527 25.5895 17.0129 26.2681 17.6671 26.7544C18.3213 27.2407 19.1111 27.5105 19.9261 27.526C18.5418 28.6108 16.833 29.199 15.0743 29.1962C14.763 29.1966 14.452 29.1786 14.1428 29.1423C15.9295 30.2903 18.0091 30.8993 20.1328 30.8963C21.5944 30.9062 23.0435 30.6255 24.3957 30.0707C25.748 29.5159 26.9766 28.6979 28.0102 27.6644C29.0437 26.6308 29.8617 25.4022 30.4165 24.0499C30.9713 22.6976 31.252 21.2486 31.2422 19.787C31.2422 19.6172 31.2422 19.4495 31.2312 19.2818C31.9956 18.7294 32.6555 18.0452 33.1799 17.2612L33.1789 17.2602Z" fill="#1DA1F2"/>
<circle cx="22.5" cy="22.5" r="22.25" stroke="#00347D" stroke-width="0.5"/>
</svg>
