<svg width="20" height="16" viewBox="0 0 20 16" fill="none" xmlns="http://www.w3.org/2000/svg">
<path d="M19.1789 2.2602C18.4659 2.57567 17.7099 2.78294 16.9357 2.87516C17.751 2.38747 18.3613 1.62003 18.6528 0.715785C17.886 1.17064 17.0469 1.49074 16.172 1.6622C15.636 1.09113 14.9408 0.694283 14.1766 0.523145C13.4123 0.352007 12.6143 0.414472 11.886 0.702438C11.1577 0.990404 10.5327 1.49058 10.0921 2.13809C9.65159 2.78559 9.41577 3.55055 9.41528 4.33372C9.41466 4.63338 9.44815 4.93214 9.51511 5.22423C7.96281 5.14617 6.44427 4.74258 5.05805 4.03966C3.67182 3.33675 2.44888 2.35021 1.4686 1.14407C0.969141 2.00368 0.816038 3.02133 1.04046 3.98985C1.26488 4.95838 1.84995 5.80498 2.67657 6.35733C2.05656 6.33819 1.45021 6.17042 0.908539 5.86815V5.92006C0.908877 6.82068 1.2204 7.69352 1.79037 8.39084C2.36034 9.08816 3.15375 9.56712 4.0363 9.74665C3.70083 9.83791 3.35468 9.88391 3.00702 9.88342C2.76209 9.88344 2.51772 9.86004 2.27724 9.81353C2.52697 10.5895 3.01289 11.2681 3.6671 11.7544C4.32131 12.2407 5.11111 12.5105 5.92613 12.526C4.54175 13.6108 2.83304 14.199 1.07426 14.1962C0.762989 14.1966 0.451963 14.1786 0.142822 14.1423C1.92949 15.2903 4.00907 15.8993 6.13278 15.8963C7.59443 15.9062 9.04346 15.6255 10.3957 15.0707C11.748 14.5159 12.9766 13.6979 14.0102 12.6644C15.0437 11.6308 15.8617 10.4022 16.4165 9.04992C16.9713 7.69764 17.252 6.2486 17.2422 4.78696C17.2422 4.61724 17.2422 4.44953 17.2312 4.28181C17.9956 3.72939 18.6555 3.04516 19.1799 2.26119L19.1789 2.2602Z" fill="#1DA1F2"/>
</svg>
