<svg width="45" height="45" viewBox="0 0 45 45" fill="none" xmlns="http://www.w3.org/2000/svg">
<circle cx="22.5" cy="22.5" r="22.25" stroke="#00347D" stroke-width="0.5"/>
<path fill-rule="evenodd" clip-rule="evenodd" d="M14.1428 21.5714C14.1428 18.0695 14.1428 16.3186 15.2307 15.2307C16.3186 14.1428 18.0695 14.1428 21.5714 14.1428H23.4285C26.9304 14.1428 28.6814 14.1428 29.7692 15.2307C30.8571 16.3186 30.8571 18.0695 30.8571 21.5714V23.4285C30.8571 26.9304 30.8571 28.6814 29.7692 29.7692C28.6814 30.8571 26.9304 30.8571 23.4285 30.8571H21.5714C18.0695 30.8571 16.3186 30.8571 15.2307 29.7692C14.1428 28.6814 14.1428 26.9304 14.1428 23.4285V21.5714ZM28.0714 18.3214C28.0714 19.0907 27.4478 19.7143 26.6785 19.7143C25.9093 19.7143 25.2857 19.0907 25.2857 18.3214C25.2857 17.5521 25.9093 16.9285 26.6785 16.9285C27.4478 16.9285 28.0714 17.5521 28.0714 18.3214ZM24.3571 23.4285C24.3571 24.4542 23.5257 25.2857 22.5 25.2857C21.4743 25.2857 20.6428 24.4542 20.6428 23.4285C20.6428 22.4028 21.4743 21.5714 22.5 21.5714C23.5257 21.5714 24.3571 22.4028 24.3571 23.4285ZM26.2143 23.4285C26.2143 25.4798 24.5513 27.1428 22.5 27.1428C20.4486 27.1428 18.7857 25.4798 18.7857 23.4285C18.7857 21.3772 20.4486 19.7143 22.5 19.7143C24.5513 19.7143 26.2143 21.3772 26.2143 23.4285Z" fill="url(#paint0_linear_25_58)"/>
<defs>
<linearGradient id="paint0_linear_25_58" x1="22.5" y1="14.1428" x2="22.5" y2="30.8571" gradientUnits="userSpaceOnUse">
<stop stop-color="#405DE6"/>
<stop offset="0.1" stop-color="#5B51D8"/>
<stop offset="0.195" stop-color="#833AB4"/>
<stop offset="0.29" stop-color="#E1306C"/>
<stop offset="0.39" stop-color="#C13584"/>
<stop offset="0.51" stop-color="#FD1D1D"/>
<stop offset="0.62" stop-color="#F56040"/>
<stop offset="0.73" stop-color="#F57E17"/>
<stop offset="0.865" stop-color="#FCAF45"/>
<stop offset="1" stop-color="#FFDC80"/>
</linearGradient>
</defs>
</svg>
