<svg width="42" height="48" viewBox="0 0 42 48" fill="none" xmlns="http://www.w3.org/2000/svg">
<path d="M41 1H1V46.5L20.5 29L41 46.5V1Z" fill="#0CF227" stroke="black"/>
<path d="M4.04461 20V9.365H5.91961L6.72961 11.54V20H4.04461ZM11.3796 20L5.16961 12.11L5.91961 9.365L12.1446 17.255L11.3796 20ZM11.3796 20L10.6896 17.765V9.365H13.3746V20H11.3796ZM15.2653 20V9.365H17.9503V20H15.2653ZM17.3953 20V17.735H23.1553V20H17.3953ZM17.3953 15.68V13.475H22.6153V15.68H17.3953ZM17.3953 11.63V9.365H23.0653V11.63H17.3953ZM27.2946 20L23.9196 9.365H26.5746L29.0046 17.555H27.8496L30.2496 9.365H32.3946L34.7946 17.555H33.6546L36.0846 9.365H38.7246L35.3346 20H33.1746L30.7746 11.825H31.8546L29.4696 20H27.2946Z" fill="white"/>
</svg>
