<svg width="42" height="48" viewBox="0 0 42 48" fill="none" xmlns="http://www.w3.org/2000/svg">
<path d="M41 1H1V46.5L20.5 29L41 46.5V1Z" fill="#F20C0C" stroke="black"/>
<path d="M7.22631 21.121C6.57364 21.121 6.00531 21.022 5.52131 20.824C5.04464 20.626 4.60831 20.3143 4.21231 19.889L5.45531 18.635C5.72664 18.921 6.01631 19.141 6.32431 19.295C6.63231 19.4417 6.98064 19.515 7.36931 19.515C7.69931 19.515 7.95231 19.46 8.12831 19.35C8.31164 19.2327 8.40331 19.075 8.40331 18.877C8.40331 18.6937 8.33731 18.5433 8.20531 18.426C8.07331 18.3013 7.89731 18.195 7.67731 18.107C7.46464 18.0117 7.22631 17.9237 6.96231 17.843C6.70564 17.755 6.44531 17.6523 6.18131 17.535C5.92464 17.4103 5.68631 17.26 5.46631 17.084C5.25364 16.908 5.08131 16.688 4.94931 16.424C4.81731 16.16 4.75131 15.8337 4.75131 15.445C4.75131 14.9463 4.86864 14.521 5.10331 14.169C5.34531 13.817 5.67898 13.5457 6.10431 13.355C6.52964 13.1643 7.02464 13.069 7.58931 13.069C8.15398 13.069 8.67464 13.1643 9.15131 13.355C9.62798 13.5457 10.0203 13.8097 10.3283 14.147L9.07431 15.39C8.83964 15.1553 8.60131 14.9793 8.35931 14.862C8.11731 14.7447 7.85331 14.686 7.56731 14.686C7.29598 14.686 7.08331 14.7337 6.92931 14.829C6.77531 14.9243 6.69831 15.06 6.69831 15.236C6.69831 15.412 6.76431 15.555 6.89631 15.665C7.02831 15.775 7.20064 15.874 7.41331 15.962C7.63331 16.0427 7.87164 16.127 8.12831 16.215C8.39231 16.303 8.65264 16.4057 8.90931 16.523C9.16598 16.6403 9.40064 16.7907 9.61331 16.974C9.83331 17.1573 10.0093 17.3883 10.1413 17.667C10.2733 17.9457 10.3393 18.283 10.3393 18.679C10.3393 19.4563 10.0643 20.0577 9.51431 20.483C8.97164 20.9083 8.20898 21.121 7.22631 21.121ZM15.1965 21.143C14.5952 21.143 14.0415 21.0403 13.5355 20.835C13.0295 20.6297 12.5858 20.3437 12.2045 19.977C11.8305 19.6103 11.5372 19.1813 11.3245 18.69C11.1118 18.1913 11.0055 17.656 11.0055 17.084C11.0055 16.512 11.1082 15.984 11.3135 15.5C11.5262 15.0087 11.8195 14.5797 12.1935 14.213C12.5675 13.8463 13.0075 13.564 13.5135 13.366C14.0195 13.1607 14.5732 13.058 15.1745 13.058C15.7758 13.058 16.3295 13.1607 16.8355 13.366C17.3415 13.564 17.7815 13.8463 18.1555 14.213C18.5295 14.5797 18.8192 15.0087 19.0245 15.5C19.2372 15.9913 19.3435 16.523 19.3435 17.095C19.3435 17.667 19.2372 18.1987 19.0245 18.69C18.8192 19.1813 18.5295 19.614 18.1555 19.988C17.7815 20.3547 17.3415 20.6407 16.8355 20.846C16.3368 21.044 15.7905 21.143 15.1965 21.143ZM15.1745 19.383C15.6145 19.383 15.9958 19.2877 16.3185 19.097C16.6412 18.9063 16.8905 18.6387 17.0665 18.294C17.2425 17.9493 17.3305 17.546 17.3305 17.084C17.3305 16.7467 17.2792 16.4387 17.1765 16.16C17.0812 15.8813 16.9382 15.643 16.7475 15.445C16.5568 15.2397 16.3295 15.082 16.0655 14.972C15.8015 14.862 15.5045 14.807 15.1745 14.807C14.7345 14.807 14.3532 14.9023 14.0305 15.093C13.7078 15.2763 13.4585 15.5403 13.2825 15.885C13.1065 16.2297 13.0185 16.6293 13.0185 17.084C13.0185 17.436 13.0662 17.755 13.1615 18.041C13.2642 18.3197 13.4108 18.5617 13.6015 18.767C13.7922 18.965 14.0195 19.119 14.2835 19.229C14.5475 19.3317 14.8445 19.383 15.1745 19.383ZM24.2414 21.143C23.6401 21.143 23.0864 21.0403 22.5804 20.835C22.0744 20.6297 21.6308 20.3437 21.2494 19.977C20.8754 19.6103 20.5821 19.1813 20.3694 18.69C20.1568 18.1913 20.0504 17.656 20.0504 17.084C20.0504 16.512 20.1531 15.984 20.3584 15.5C20.5711 15.0087 20.8644 14.5797 21.2384 14.213C21.6124 13.8463 22.0524 13.564 22.5584 13.366C23.0644 13.1607 23.6181 13.058 24.2194 13.058C24.8208 13.058 25.3744 13.1607 25.8804 13.366C26.3864 13.564 26.8264 13.8463 27.2004 14.213C27.5744 14.5797 27.8641 15.0087 28.0694 15.5C28.2821 15.9913 28.3884 16.523 28.3884 17.095C28.3884 17.667 28.2821 18.1987 28.0694 18.69C27.8641 19.1813 27.5744 19.614 27.2004 19.988C26.8264 20.3547 26.3864 20.6407 25.8804 20.846C25.3818 21.044 24.8354 21.143 24.2414 21.143ZM24.2194 19.383C24.6594 19.383 25.0408 19.2877 25.3634 19.097C25.6861 18.9063 25.9354 18.6387 26.1114 18.294C26.2874 17.9493 26.3754 17.546 26.3754 17.084C26.3754 16.7467 26.3241 16.4387 26.2214 16.16C26.1261 15.8813 25.9831 15.643 25.7924 15.445C25.6018 15.2397 25.3744 15.082 25.1104 14.972C24.8464 14.862 24.5494 14.807 24.2194 14.807C23.7794 14.807 23.3981 14.9023 23.0754 15.093C22.7528 15.2763 22.5034 15.5403 22.3274 15.885C22.1514 16.2297 22.0634 16.6293 22.0634 17.084C22.0634 17.436 22.1111 17.755 22.2064 18.041C22.3091 18.3197 22.4558 18.5617 22.6464 18.767C22.8371 18.965 23.0644 19.119 23.3284 19.229C23.5924 19.3317 23.8894 19.383 24.2194 19.383ZM29.3732 21V13.201H30.7482L31.3422 14.796V21H29.3732ZM34.7522 21L30.1982 15.214L30.7482 13.201L35.3132 18.987L34.7522 21ZM34.7522 21L34.2462 19.361V13.201H36.2152V21H34.7522Z" fill="white"/>
</svg>
