<svg width="45" height="45" viewBox="0 0 45 45" fill="none" xmlns="http://www.w3.org/2000/svg">
<path d="M33.1789 17.26C32.4659 17.5754 31.7099 17.7827 30.9357 17.8749C31.751 17.3872 32.3613 16.6198 32.6528 15.7155C31.886 16.1704 31.0469 16.4905 30.172 16.662C29.636 16.0909 28.9408 15.694 28.1766 15.5229C27.4123 15.3518 26.6143 15.4142 25.886 15.7022C25.1577 15.9902 24.5327 16.4903 24.0921 17.1378C23.6516 17.7854 23.4158 18.5503 23.4153 19.3335C23.4147 19.6331 23.4481 19.9319 23.5151 20.224C21.9628 20.1459 20.4443 19.7423 19.058 19.0394C17.6718 18.3365 16.4489 17.35 15.4686 16.1438C14.9691 17.0034 14.816 18.0211 15.0405 18.9896C15.2649 19.9581 15.8499 20.8047 16.6766 21.3571C16.0566 21.3379 15.4502 21.1702 14.9085 20.8679V20.9198C14.9089 21.8204 15.2204 22.6933 15.7904 23.3906C16.3603 24.0879 17.1537 24.5669 18.0363 24.7464C17.7008 24.8377 17.3547 24.8837 17.007 24.8832C16.7621 24.8832 16.5177 24.8598 16.2772 24.8133C16.527 25.5893 17.0129 26.2678 17.6671 26.7541C18.3213 27.2404 19.1111 27.5102 19.9261 27.5257C18.5418 28.6106 16.833 29.1988 15.0743 29.1959C14.763 29.1964 14.452 29.1784 14.1428 29.142C15.9295 30.2901 18.0091 30.899 20.1328 30.8961C21.5944 30.9059 23.0435 30.6253 24.3957 30.0704C25.748 29.5156 26.9766 28.6977 28.0102 27.6641C29.0437 26.6306 29.8617 25.402 30.4165 24.0497C30.9713 22.6974 31.252 21.2484 31.2422 19.7867C31.2422 19.617 31.2422 19.4493 31.2312 19.2816C31.9956 18.7291 32.6555 18.0449 33.1799 17.2609L33.1789 17.26Z" fill="#1DA1F2"/>
<circle cx="22.5" cy="22.5" r="22.25" stroke="#00347D" stroke-width="0.5"/>
</svg>
